<svg xmlns="http://www.w3.org/2000/svg" version="1.1" xmlns:xlink="http://www.w3.org/1999/xlink" width="512" height="512" x="0" y="0" viewBox="0 0 512 515" style="enable-background:new 0 0 512 512" xml:space="preserve" class=""><g><path d="M256.04 289.76c24.01 0 36.14 29.17 19.13 46.18-17 17-46.17 4.87-46.17-19.14 0-14.94 12.1-27.04 27.04-27.04zm9.24 17.83c-8.19-8.19-22.28-2.38-22.28 9.21s14.09 17.43 22.28 9.24c5.08-5.1 5.08-13.38 0-18.45zm135.27 48.05c-5.02 0-9.18 4.14-9.18 9.16 0 3.85-.37 6.92 2.72 9.98 5.81 5.84 15.65 1.59 15.65-6.46 0-3.88.37-6.92-2.72-9.98a9.04 9.04 0 0 0-6.47-2.7zm0-14.01c12.76 0 23.19 10.4 23.19 23.16 0 4.99.11 8.25-2.1 13.1 8.65 4.31 14.43 13.18 14.43 23.19v14.63c0 3.88-3.15 7-7 7h-57c-3.88 0-7-3.12-7-7v-14.63c0-10.01 5.75-18.88 14.4-23.19-2.21-4.85-2.07-8.08-2.07-13.1-.01-12.75 10.4-23.16 23.15-23.16zm9.98 47.57a23.083 23.083 0 0 1-19.96 0c-3.12.08-5.95 1.42-8.02 3.49a11.863 11.863 0 0 0-3.49 8.39v7.63h43v-7.63c.01-6.41-5.15-11.68-11.53-11.88zM78.17 361.73c2.13-8.76 16.87-18.65 25.4-20.69 2.83-.65 5.7.51 7.28 2.72 3.74 3.63 6.92 10.06 8.48 15.25.88 2.92 1.79 6.72 1.05 9.41-1.08 3.97-2.49 3.83-4.79 5.78 1.56 3 4.2 6.66 6.83 8.5.14.11.28.23.43.34.57.48-.4-.54.31-.85.51-.23 1.08-.48 1.73-.77 1.62-1.5 3.83-1.9 6.52-1.33 6.83 1.47 24.89 17.46 18.2 25.63-5.84 7.09-23.47 17.21-32.09 14.46h-.03c-21.77-7.17-42.38-33.9-39.52-57.46.06-.34.11-.68.2-.99zm18.37-1.47c-2.52 1.96-4.45 3.66-4.68 4.22-.94 7.85 2.27 16.72 7.65 24.46 5.81 8.36 14.03 15.19 22.31 17.94.74.03 3.49-1.16 6.77-2.81 3.63-1.84 7.2-4.14 9.27-6.21-.57-.79-4.59-.37-6.89-2.15-.48-.4-.99-.74-1.47-1.08-8.33 3.71-9.16 4.22-15.53-.79-5.39-4.22-8.93-9.18-11.85-15.42-.2-.4-.37-.85-.48-1.3-2.07-7.82-1.87-7.8 4.54-13.24-1.36-4.73-.09-7.68-.68-8.82-2.7.94-6.04 2.96-8.96 5.2zM415.72 107.6c-3.85 0-7-3.12-7-7 0-3.86 3.15-7 7-7h.88c3.85 0 7 3.15 7 7 0 3.88-3.15 7-7 7zm-15.17.43c15.22 0 22.88 18.45 12.1 29.23-10.74 10.77-29.23 3.09-29.23-12.1.01-9.48 7.66-17.13 17.13-17.13zm2.21 14.91c-2.92-2.92-7.34 1.5-4.42 4.42s7.34-1.5 4.42-4.42zm-28.54-44.62h52.67c8.45 0 15.31 6.89 15.31 15.31v52.67c0 8.45-6.86 15.34-15.31 15.34h-52.67c-8.45 0-15.31-6.89-15.31-15.34V93.63c0-8.42 6.86-15.31 15.31-15.31zm52.67 14.01h-52.67c-.71 0-1.3.6-1.3 1.3v52.67c0 .71.6 1.33 1.3 1.33h52.67c.71 0 1.33-.62 1.33-1.33V93.63c0-.71-.63-1.3-1.33-1.3zm33.42 349.82h-78.38v8.31c0 19.08-15.56 34.64-34.64 34.64H164.82c-19.08 0-34.67-15.56-34.67-34.64v-8.31H51.81c-10.26 0-18.65-8.39-18.65-18.65v-82.89c0-10.29 8.39-18.65 18.65-18.65h56.75c3.74-10.18 12.42-18.91 21.6-25.2v-92.55c-9.18-6.29-17.86-15.02-21.6-25.2H51.81c-10.26 0-18.65-8.36-18.65-18.65V77.47c0-10.26 8.39-18.65 18.65-18.65h78.35v-3.06c0-19.08 15.59-34.67 34.67-34.67H347.3c19.08 0 34.64 15.59 34.64 34.67v3.06h78.38c10.26 0 18.62 8.39 18.62 18.65v82.89c0 10.29-8.36 18.65-18.62 18.65h-56.78c-3.71 10.18-12.42 18.91-21.6 25.2v92.55c9.18 6.29 17.89 15.02 21.6 25.2h56.78c10.26 0 18.62 8.36 18.62 18.65v82.89c-.01 10.26-8.37 18.65-18.63 18.65zm-92.38 0h-27.1c-10.29 0-18.65-8.39-18.65-18.65v-7.37H189.94c0 7.97.79 14.26-5.47 20.55a18.628 18.628 0 0 1-13.18 5.47h-27.13v8.31c0 11.34 9.3 20.64 20.66 20.64h182.47c11.34 0 20.64-9.3 20.64-20.64zm-45.76-40.03v-61.51c0-10.29 8.36-18.65 18.65-18.65h21.97c.96-6.83-3.26-17.32-4.68-25.43-.99-5.61 4.85-9.86 9.81-7.57v-76.99c-4.96 2.32-10.8-1.93-9.81-7.54 1.42-8.11 5.64-18.6 4.68-25.43h-21.97c-10.29 0-18.65-8.36-18.65-18.65V77.47c0-10.26 8.36-18.65 18.65-18.65h27.1v-3.06c0-11.37-9.3-20.66-20.64-20.66h-21.97l-17.04 47.59a7.002 7.002 0 0 1-6.6 4.65H210.4c-3.12 0-5.75-2.04-6.66-4.88l-16.95-47.37h-21.97c-11.37 0-20.66 9.3-20.66 20.66v3.06h27.13c10.26 0 18.65 8.39 18.65 18.65v82.89c0 10.29-8.39 18.65-18.65 18.65h-21.97c-.96 6.83 3.26 17.32 4.68 25.43.99 5.61-4.85 9.86-9.84 7.54v76.99c4.99-2.3 10.83 1.96 9.84 7.57-1.42 8.11-5.64 18.6-4.68 25.43h21.97c10.26 0 18.65 8.36 18.65 18.65v61.51zm18.66 26.03h119.48c2.52 0 4.62-2.13 4.62-4.65v-82.89c0-2.55-2.1-4.65-4.62-4.65h-62.14c-3.4 0-6.41-2.49-6.92-5.98-1.19-7.85-8.67-15.53-15.59-20.58 1.7 7.4 2.35 14.77-1.42 22.28a6.963 6.963 0 0 1-6.43 4.28h-26.99c-2.55 0-4.65 2.1-4.65 4.65v82.89c.01 2.52 2.1 4.65 4.66 4.65zm-289.02 0h119.48c2.55 0 4.65-2.13 4.65-4.65v-82.89c0-2.55-2.1-4.65-4.65-4.65H144.3c-2.92 0-5.39-1.76-6.46-4.28-3.77-7.51-3.09-14.88-1.39-22.28-6.92 5.05-14.4 12.73-15.59 20.58-.54 3.49-3.51 5.98-6.92 5.98H51.81c-2.52 0-4.65 2.1-4.65 4.65v82.89c0 2.52 2.09 4.65 4.65 4.65zm408.5-355.33H340.83c-2.55 0-4.65 2.1-4.65 4.65v82.89c0 2.55 2.1 4.65 4.65 4.65h26.99c2.89 0 5.39 1.76 6.43 4.25 3.77 7.51 3.12 14.88 1.42 22.31 6.92-5.05 14.4-12.73 15.59-20.61.51-3.46 3.52-5.95 6.92-5.95h62.14c2.52 0 4.62-2.1 4.62-4.65V77.47c-.01-2.55-2.11-4.65-4.63-4.65zm-315.78 49.69-22.56 13.01v.03l-22.65 13.07c-4.71 2.72-10.49-.74-10.49-6.04h-.03V90.26c0-5.22 5.73-9.07 10.91-5.81l22.25 12.84 22.65 13.1c4.74 2.71 4.59 9.52-.08 12.12zm-29.54.94 12.19-7.03-24.38-14.06v28.12l12.16-7.03v.03zm56.3-50.63H51.81c-2.55 0-4.65 2.1-4.65 4.65v82.89c0 2.55 2.13 4.65 4.65 4.65h62.14c3.4 0 6.38 2.49 6.92 5.95 1.19 7.88 8.67 15.56 15.59 20.61-1.7-7.43-2.38-14.8 1.39-22.31 1.08-2.49 3.54-4.25 6.46-4.25h26.99c2.55 0 4.65-2.1 4.65-4.65V77.47c-.02-2.55-2.11-4.65-4.66-4.65zm-4.65 189.67c-1.59 3.54-5.73 5.1-9.24 3.51-3.54-1.59-5.1-5.73-3.51-9.24 18.77-41.47 56.95-71.6 102.16-71.6 45.24 0 83.42 30.13 102.16 71.6 1.59 3.51.03 7.65-3.49 9.24s-7.65.03-9.24-3.51c-16.47-36.43-49.72-63.33-89.43-63.33s-72.89 26.88-89.41 63.33zm22.93 20.92a6.998 6.998 0 0 1-9.24 3.49c-3.52-1.59-5.07-5.73-3.49-9.24 14.51-32.14 44.16-55.45 79.2-55.45 35.06 0 64.69 23.3 79.23 55.45 1.59 3.52.03 7.65-3.49 9.24-3.54 1.59-7.68.03-9.27-3.49-12.25-27.1-36.94-47.2-66.47-47.2-29.54 0-54.17 20.07-66.47 47.2zm22.62 14.48c-1.59 3.51-5.73 5.1-9.24 3.51-3.54-1.59-5.1-5.73-3.51-9.24 10.37-22.96 31.58-39.51 56.61-39.51s46.26 16.55 56.64 39.51c1.56 3.52 0 7.65-3.52 9.24s-7.65 0-9.24-3.51c-12.78-28.26-43.74-40.93-69.17-23.02-7.69 5.42-14.18 13.3-18.57 23.02zm-10.54-262.8 13.69 38.24h81.44l13.69-38.24z" fill="#ffffff" opacity="1" data-original="#000000" class=""></path></g></svg>