<svg xmlns="http://www.w3.org/2000/svg" version="1.1" xmlns:xlink="http://www.w3.org/1999/xlink" width="512" height="512" x="0" y="0" viewBox="0 0 512 512" style="enable-background:new 0 0 512 512" xml:space="preserve" class=""><g><path d="M256 0C114.841 0 0 114.841 0 256s114.841 256 256 256 256-114.841 256-256S397.159 0 256 0zM32.578 272h84.1c.972 28.746 4.552 56.609 10.53 82.601H54.906A222.292 222.292 0 0 1 32.578 272zM272 125.399V38.01c20.846 6.993 41.049 27.328 57.146 58.156 4.764 9.124 9.066 18.905 12.89 29.233zm79.905 32c6.47 25.63 10.359 53.56 11.405 82.601H272v-82.601zM240 38.01v87.389h-70.037c3.824-10.328 8.126-20.11 12.89-29.233C198.951 65.338 219.154 45.003 240 38.01zm0 119.389V240h-91.31c1.046-29.041 4.935-56.971 11.405-82.601zM116.677 240h-84.1a222.31 222.31 0 0 1 22.328-82.601h72.302c-5.978 25.992-9.558 53.855-10.53 82.601zm32.013 32H240v82.601h-79.905c-6.469-25.63-10.359-53.56-11.405-82.601zM240 386.601v87.389c-20.846-6.993-41.049-27.328-57.147-58.156-4.764-9.124-9.066-18.905-12.89-29.233zm32 87.389v-87.389h70.036c-3.824 10.328-8.126 20.109-12.89 29.233-16.097 30.828-36.3 51.163-57.146 58.156zm0-119.389V272h91.309c-1.046 29.041-4.935 56.971-11.405 82.601zM395.322 272h84.101a222.31 222.31 0 0 1-22.328 82.601h-72.303c5.978-25.992 9.558-53.855 10.53-82.601zm0-32c-.972-28.746-4.552-56.609-10.53-82.601h72.303A222.31 222.31 0 0 1 479.423 240zm42.555-114.601h-61.973c-5.18-15.739-11.327-30.515-18.392-44.045-6.945-13.299-14.577-25.003-22.763-35.05 41.689 15.707 77.496 43.501 103.128 79.095zM177.25 46.304c-8.186 10.048-15.818 21.751-22.763 35.05-7.065 13.531-13.212 28.307-18.392 44.045H74.123c25.632-35.594 61.439-63.388 103.127-79.095zM74.124 386.601h61.972c5.18 15.739 11.326 30.515 18.392 44.045 6.945 13.3 14.577 25.003 22.763 35.051-41.688-15.708-77.495-43.502-103.127-79.096zm260.625 79.095c8.186-10.048 15.818-21.751 22.763-35.051 7.065-13.53 13.212-28.306 18.392-44.045h61.973c-25.632 35.595-61.44 63.389-103.128 79.096z" fill="#ffffff" opacity="1" data-original="#000000" class=""></path></g></svg>