<svg xmlns="http://www.w3.org/2000/svg" version="1.1" xmlns:xlink="http://www.w3.org/1999/xlink" width="512" height="512" x="0" y="0" viewBox="0 0 24 24" style="enable-background:new 0 0 512 512" xml:space="preserve" class=""><g><g fill="#000" fill-rule="evenodd" clip-rule="evenodd"><path d="M19.939 21a8.026 8.026 0 0 0-15.927 0zM3.95 22c-.553 0-1.006-.45-.946-.998a9.026 9.026 0 0 1 17.94 0c.061.549-.393.998-.945.998zM12 11a4 4 0 1 0 0-8 4 4 0 0 0 0 8zm0 1a5 5 0 1 0 0-10 5 5 0 0 0 0 10z" fill="#ffffff" opacity="1" data-original="#000000"></path></g></g></svg>